<svg viewBox="0 0 60 60" xmlns="http://www.w3.org/2000/svg"><g fill="#fff" fill-rule="evenodd" stroke="#05487a" stroke-linecap="round" stroke-linejoin="round" stroke-width="1.5"><rect transform="matrix(.91084 0 0 .91084 .54482 .20793)" x="2.3668" y="2.6248" width="16.915" height="16.915" rx="1.9266"/><rect transform="matrix(.91084 0 0 .91084 .54482 .20793)" x="23.901" y="2.6248" width="16.915" height="16.915" rx="1.9266"/><rect x="2.7006" y="22.611" width="15.407" height="15.407" rx="1.7548"/><rect x="22.315" y="22.611" width="15.407" height="15.407" rx="1.7548"/><rect transform="matrix(.91084 0 0 .91084 .54482 .20793)" x="46.066" y="2.6248" width="16.915" height="16.915" rx="1.9266"/><rect x="42.504" y="22.611" width="15.407" height="15.407" rx="1.7548"/><rect x="2.7006" y="42.185" width="15.407" height="15.407" rx="1.7548"/><rect x="22.315" y="42.185" width="15.407" height="15.407" rx="1.7548"/><rect x="42.504" y="42.185" width="15.407" height="15.407" rx="1.7548"/></g><text x="25.258093" y="55.50568" fill="#000" font-family="sans-serif" font-size="32" font-weight="400" letter-spacing="0" word-spacing="0" style="line-height:1.25"><tspan x="25.258093" y="55.50568" fill="red" font-size="16">5</tspan></text><text x="45.797413" y="55.775341" fill="#000" font-family="sans-serif" font-size="32" font-weight="400" letter-spacing="0" word-spacing="0" style="line-height:1.25"><tspan x="45.797413" y="55.775341" fill="red" font-size="16">0</tspan></text><path d="m24.341 29.017v6.912h6.912l18.432-18.432-6.912-6.912zm6.912 4.608h-4.608v-4.608h2.304v2.304h2.304zm23.731-21.427-2.9952 2.9952-6.912-6.912L48.072 5.286a2.2948 2.2948.0 013.2486.0l3.6634 3.6634c.89856.89856.89856 2.3501.0 3.2486z" fill-rule="evenodd" stroke-width="2.304"/></svg>
